<svg width="24" height="24" viewBox="0 0 24 24" fill="none" xmlns="http://www.w3.org/2000/svg">
<path d="M0 12C-2.07487e-07 14.3734 0.703787 16.6935 2.02236 18.6668C3.34094 20.6402 5.21508 22.1783 7.4078 23.0866C9.60051 23.9948 12.0133 24.2324 14.3411 23.7694C16.6689 23.3064 18.8071 22.1635 20.4853 20.4853C22.1635 18.8071 23.3064 16.6689 23.7694 14.3411C24.2324 12.0133 23.9948 9.60051 23.0866 7.4078C22.1783 5.21509 20.6402 3.34094 18.6668 2.02237C16.6935 0.703788 14.3734 1.79185e-07 12 0V2.4C13.8987 2.4 15.7548 2.96303 17.3335 4.01789C18.9122 5.07275 20.1426 6.57207 20.8692 8.32624C21.5958 10.0804 21.786 12.0107 21.4155 13.8729C21.0451 15.7351 20.1308 17.4456 18.7882 18.7882C17.4456 20.1308 15.7351 21.0451 13.8729 21.4155C12.0106 21.786 10.0804 21.5958 8.32624 20.8692C6.57207 20.1426 5.07275 18.9122 4.01789 17.3335C2.96303 15.7548 2.4 13.8987 2.4 12H0Z" fill="black"/>
</svg>
